# xmcd
#
# Track frame offsets:
#	150
#	14657
#	26977
#	46352
#	59917
#	74730
#	92027
#	108677
#	123067
#	138210
#	150010
#	168722
#	185735
#	200125
#
# Disc length: 2908
#
# Revision: 2
# Processed by: cddbd v1.5.1PL0 Copyright (c) Steve Scherf et al.
# Submitted via: dBpowerAMP V4.0
# Normalized: r0:DSETVAR2,TDELIM( - );r1:TSWAP
#
DISCID=d50b5a0e
DTITLE=Various Artist - Mr. Music Country 08-98
DYEAR=1998
DGENRE=Country
TTITLE0=Aaron Tippin - All I Have To Offer You Is Me
TTITLE1=Kenny Chesney - I'd Love To Cange Your Name
TTITLE2=Alan Jackson - Between The Devil And Me
TTITLE3=Bobby Lee Caldwell - Doin' Without
TTITLE4=McKennard - It's All Over Now
TTITLE5=Erin Hay - Somebody's Angel
TTITLE6=B. Jeff Stone - Good Hearted Woman
TTITLE7=Dan Harrell - Homer Jones
TTITLE8=John Anderson - Clear As A Bell
TTITLE9=Lorrie Morgan - Candy Kisses
TTITLE10=Mike Bella - God Made Love
TTITLE11=Darrell McCall - Just Ridin' Through
TTITLE12=Rick Hertless - Whine Wheels Whine
TTITLE13=Daryle Singletary - Ain't It The Thruth
EXTD=
EXTT0=
EXTT1=
EXTT2=
EXTT3=
EXTT4=
EXTT5=
EXTT6=
EXTT7=
EXTT8=
EXTT9=
EXTT10=
EXTT11=
EXTT12=
EXTT13=
PLAYORDER=
